<svg id="Layer_1" data-name="Layer 1" xmlns="http://www.w3.org/2000/svg" viewBox="0 0 133 138"><defs><style>.cls-1{fill:#fff;}.cls-1,.cls-4{stroke:#000;stroke-miterlimit:10;}.cls-2{fill:#e31b38;}.cls-3{fill:#054981;}.cls-4{fill:none;}</style></defs><circle class="cls-1" cx="64.5" cy="69.5" r="57"/><path class="cls-2" d="M70.64,88.24C57.25,91.9,57,92.11,48.94,80.62c-9.26-13.29-9.53-10.87-.11-24C59.1,42.28,57,42.83,73.31,49.9c14.88,6.47,12.74,4.3,12.23,20.26,0,.17,0,.33,0,.5C84.2,84.44,84.09,84.58,70.64,88.24Z"/><path class="cls-3" d="M75.7,20.31C68,23,61.3,26.19,55.79,31.35c-1.09,1-2.12.64-3.22.48-6.11-.88-12.2-1.1-18.23.51-3.05.81-3.65-.08-3-3.19,1.25-5.7,3.67-9.79,9.56-12.08a84.9,84.9,0,0,1,20.63-5.22C68.43,11,71.2,16.35,75.7,20.31Z"/><path class="cls-3" d="M113.62,77.7c5.48,7.27,5.48,14.13.41,21.18-2.42,3.37-5,6.6-7.5,9.89-5.38,7-12.13,8.42-20.5,5.58,4.08-6.27,7.65-12.76,8.94-20.2a3,3,0,0,1,1.69-2.3A50.56,50.56,0,0,0,113.62,77.7Z"/><path class="cls-3" d="M19.75,90.75c-7-3.27-12.17-6.91-12.12-15.45,0-5.48.18-10.88.64-16.34.6-7.12,4.81-10.79,10.73-13.53,2.49-1.15,2.83-.27,2.81,1.9a44,44,0,0,0,3.87,18.88,3.44,3.44,0,0,1-.11,3.31A51.24,51.24,0,0,0,19.75,90.75Z"/><path class="cls-3" d="M113.88,64.06c-4.54-5.82-9.42-11.42-16.12-15-1.22-.65-1.33-1.77-1.53-2.93a46.46,46.46,0,0,0-6.41-17.65c-1.52-2.34-.66-3.12,1.74-3.38,5.81-.62,11-.16,15,5.17,3,4.13,6.06,8.23,8.76,12.62C119.85,50.29,119.69,57.17,113.88,64.06Z"/><path class="cls-3" d="M71.73,118.79c-4.94,5.12-9.38,9.47-17.26,7.32a142.59,142.59,0,0,1-17.35-6c-6.33-2.62-8-7.75-9-13.7-.37-2.38.27-3,2.59-2.23a48.75,48.75,0,0,0,18.68,1.89c1.35-.1,2.53-.29,3.64.87C58.17,112.34,64.62,115.69,71.73,118.79Z"/><circle class="cls-4" cx="64.5" cy="69.5" r="57"/></svg>