<svg xmlns="http://www.w3.org/2000/svg" viewBox="0 0 14 114"><defs><style>.cls-1{fill:#ffde00;}.cls-2{fill:#e41b38;}.cls-3,.cls-5{fill:#fff;}.cls-3,.cls-4,.cls-6{stroke:#054981;stroke-miterlimit:10;}.cls-3{stroke-width:0.25px;}.cls-4{fill:none;}.cls-6{fill:#054981;}</style></defs><g id="pencil2"><rect class="cls-1" x="2" y="19" width="9" height="74" rx="1"/><rect class="cls-2" x="2" y="3" width="9" height="7"/><rect class="cls-3" x="2" y="9.6" width="9.5" height="10.5" rx="1"/><rect class="cls-4" x="2.34" y="2.85" width="9" height="90" rx="1"/><rect class="cls-5" x="7.84" y="22.35" width="2" height="69.5" rx="1"/><polygon class="cls-6" points="3 93 7 108 11 93 3 93"/><path class="cls-1" d="M4.39,93.6a.37.37,0,0,0-.37.48l.33,1,.78,2.46.94,2.93.34,1c.08.26.16.52.26.79h1c.1-.38.21-.75.32-1.12l.48-1.69c.17-.58.33-1.17.5-1.76s.31-1.1.47-1.65.25-.91.37-1.37l.18-.69a.38.38,0,0,0-.38-.46H4.39Z"/><path class="cls-5" d="M5.17,93.8a.28.28,0,0,0-.26.35l.23.76.54,1.8.65,2.15.23.76c.06.19.12.38.19.58h.69c.07-.27.15-.54.22-.82L8,98.14c.12-.43.24-.86.35-1.29s.21-.8.32-1.21.18-.66.26-1c0-.17.09-.33.12-.5a.27.27,0,0,0-.26-.34H5.17Z"/></g></svg>