<svg id="Layer_1" data-name="Layer 1" xmlns="http://www.w3.org/2000/svg" viewBox="0 0 119 118"><defs><style>.cls-1{fill:#fff;}.cls-1,.cls-4{stroke:#000;stroke-miterlimit:10;}.cls-2{fill:#e31b38;}.cls-3{fill:#054981;}.cls-4{fill:none;}</style></defs><circle class="cls-1" cx="59.5" cy="59.5" r="57"/><path class="cls-2" d="M65.64,78.24C52.25,81.9,52,82.11,43.94,70.62c-9.26-13.29-9.53-10.87-.11-24C54.1,32.28,52,32.83,68.31,39.9c14.88,6.47,12.74,4.3,12.23,20.26,0,.17,0,.33,0,.5C79.2,74.44,79.09,74.58,65.64,78.24Z"/><path class="cls-3" d="M70.7,10.31C63,13,56.3,16.19,50.79,21.35c-1.09,1-2.12.64-3.22.48-6.11-.88-12.2-1.1-18.23.51-3.05.81-3.65-.08-3-3.19,1.25-5.7,3.67-9.79,9.56-12.08A84.9,84.9,0,0,1,56.56,1.85C63.43,1,66.2,6.35,70.7,10.31Z"/><path class="cls-3" d="M108.62,67.7c5.48,7.27,5.48,14.13.41,21.18-2.42,3.37-5,6.6-7.5,9.89-5.38,7-12.13,8.42-20.5,5.58,4.08-6.27,7.65-12.76,8.94-20.2a3,3,0,0,1,1.69-2.3A50.56,50.56,0,0,0,108.62,67.7Z"/><path class="cls-3" d="M14.75,80.75c-7-3.27-12.17-6.91-12.12-15.45,0-5.48.18-10.88.64-16.34C3.87,41.84,8.08,38.17,14,35.43c2.49-1.15,2.83-.27,2.81,1.9a44,44,0,0,0,3.87,18.88,3.44,3.44,0,0,1-.11,3.31A51.24,51.24,0,0,0,14.75,80.75Z"/><path class="cls-3" d="M108.88,54.06c-4.54-5.82-9.42-11.42-16.12-15-1.22-.65-1.33-1.77-1.53-2.93a46.46,46.46,0,0,0-6.41-17.65c-1.52-2.34-.66-3.12,1.74-3.38,5.81-.62,11-.16,15,5.17,3,4.13,6.06,8.23,8.76,12.62C114.85,40.29,114.69,47.17,108.88,54.06Z"/><path class="cls-3" d="M66.73,108.79c-4.94,5.12-9.38,9.47-17.26,7.32a142.59,142.59,0,0,1-17.35-6c-6.33-2.62-8-7.75-9-13.7-.37-2.38.27-3,2.59-2.23a48.75,48.75,0,0,0,18.68,1.89c1.35-.1,2.53-.29,3.64.87C53.17,102.34,59.62,105.69,66.73,108.79Z"/><circle class="cls-4" cx="59.5" cy="59.5" r="57"/></svg>